# xmcd CD database file
#
# Track frame offsets:
#	150
#	18282
#	34912
#	55320
#	69470
#	84577
#	88760
#	108057
#	123785
#	140700
#	155612
#	170250
#	192402
#	206565
#	222930
#	247250
#	261585
#	275497
#	291232
#	312327
#	325095
#
# Disc length: 4565 seconds
#
# Revision: 0
# Processed by: cddbd v1.5.1PL0 Copyright (c) Steve Scherf et al.
# Submitted via: CDex 1.51
#
DISCID=4011d315
DTITLE=山本正之 - 蔵出・山本正之作品大全集 Disc1
DYEAR=1900
DGENRE=Vocal
TTITLE0=燃えよドラゴンズ!2000
TTITLE1=イヤイヤ社員旅行
TTITLE2=STAR SHIP☆とも蔵号出発!
TTITLE3=やんちゃマーブルブルース
TTITLE4=夢千両
TTITLE5=ボカンと一発ドロンボー
TTITLE6=科学要塞!秘密ハード工場
TTITLE7=ゴローにおまかせ
TTITLE8=わたしの777
TTITLE9=OGENKI小唄
TTITLE10=道楽女王
TTITLE11=優しくいきたい
TTITLE12=好きよ,ストレート!だから今夜もここに来た
TTITLE13=竜の涙割り
TTITLE14=セッション
TTITLE15=ヒッサツマンの歌
TTITLE16=武士マブシイ
TTITLE17=はればれ音頭
TTITLE18=アタレ!宝くじ
TTITLE19=僕のハートはマージービート
TTITLE20=荒野の魚屋ジミー
EXTD=
EXTT0=
EXTT1=
EXTT2=
EXTT3=
EXTT4=
EXTT5=
EXTT6=
EXTT7=
EXTT8=
EXTT9=
EXTT10=
EXTT11=
EXTT12=
EXTT13=
EXTT14=
EXTT15=
EXTT16=
EXTT17=
EXTT18=
EXTT19=
EXTT20=
PLAYORDER=
